<?xml version="1.0" encoding="UTF-8" standalone="no"?>
<svg
   width="166.64301"
   height="24.000099"
   viewBox="0 0 166.64301 24.000099"
   fill="none"
   version="1.1"
   id="svg26"
   sodipodi:docname="logrhythm_logo_darkmode_wide.svg"
   inkscape:version="1.1.1 (3bf5ae0d25, 2021-09-20)"
   xmlns:inkscape="http://www.inkscape.org/namespaces/inkscape"
   xmlns:sodipodi="http://sodipodi.sourceforge.net/DTD/sodipodi-0.dtd"
   xmlns="http://www.w3.org/2000/svg"
   xmlns:svg="http://www.w3.org/2000/svg">
  <defs
     id="defs30" />
  <sodipodi:namedview
     id="namedview28"
     pagecolor="#ffffff"
     bordercolor="#666666"
     borderopacity="1.0"
     inkscape:pageshadow="2"
     inkscape:pageopacity="0.0"
     inkscape:pagecheckerboard="0"
     showgrid="false"
     fit-margin-top="0"
     fit-margin-left="0"
     fit-margin-right="0"
     fit-margin-bottom="0"
     inkscape:zoom="4.0692308"
     inkscape:cx="124.34783"
     inkscape:cy="11.918715"
     inkscape:window-width="1920"
     inkscape:window-height="1009"
     inkscape:window-x="-8"
     inkscape:window-y="-8"
     inkscape:window-maximized="1"
     inkscape:current-layer="svg26" />
  <path
     d="M 54.6432,2.47961 H 52.0701 V 19.5556 h 9.4035 v -2.152 h -6.8304 z"
     fill="#fcfdfd"
     id="path2" />
  <path
     d="m 68.3508,6.45618 c -3.0877,0 -4.8654,1.35672 -4.8654,3.64912 v 6.0351 c 0,2.3392 1.7777,3.6491 4.8654,3.6491 3.0878,0 4.8655,-1.3567 4.8655,-3.6491 v -6.0351 c 0,-2.33918 -1.7777,-3.64912 -4.8655,-3.64912 z m -2.4327,4.11692 c 0,-1.30991 0.7953,-1.91809 2.4327,-1.91809 1.6375,0 2.4328,0.60818 2.4328,1.91809 v 5.0527 c 0,1.3099 -0.7485,1.9181 -2.4328,1.9181 -1.6842,0 -2.4327,-0.6082 -2.4327,-1.9181 z"
     fill="#fcfdfd"
     id="path4" />
  <path
     d="M 82.9474,7.15796 C 81.9181,6.64334 80.8889,6.40942 79.6257,6.40942 c -2.4327,0 -3.883,1.30995 -3.883,3.50878 v 5.8947 c 0,2.2456 1.5438,3.6492 3.9766,3.6492 0.9357,0 1.9181,-0.234 2.9006,-0.655 v 0.4678 c 0,1.6842 -1.1228,2.5263 -3.3685,2.5263 -1.076,0 -2.5263,-0.1871 -3.0877,-0.3274 L 75.9298,21.427 v 2.152 l 0.1404,0.0468 c 0.8421,0.1871 2.1988,0.3275 3.2748,0.3275 3.9766,0 5.7544,-1.4035 5.7544,-4.5848 V 6.59656 H 83.0877 Z M 78.2222,10.386 c 0,-1.45026 1.076,-1.73096 1.9649,-1.73096 0.8889,0 1.5439,0.18713 2.4796,0.60819 V 16.655 c -0.8422,0.3743 -1.6375,0.5614 -2.386,0.5614 -1.6842,0 -2.0117,-1.076 -2.0117,-2.0117 V 10.386 Z"
     fill="#fcfdfd"
     id="path6" />
  <path
     d="M 98.0585,8.74859 V 7.25151 c 0,-3.18128 -1.9182,-4.72514 -5.8948,-4.72514 H 87.8596 V 19.5556 h 2.6199 v -6.4093 h 2.0117 l 4.0702,6.4093 h 2.9473 L 95.1111,12.772 c 1.9649,-0.5614 2.9474,-1.9181 2.9474,-4.02341 z m -7.579,2.19881 V 4.67841 h 1.8246 c 2.1988,0 3.1813,0.84211 3.1813,2.66667 v 1.12281 c 0,1.73101 -0.9825,2.47951 -3.2749,2.47951 z"
     fill="#fcfdfd"
     id="path8" />
  <path
     d="m 107.228,6.45622 c -1.076,0 -2.246,0.2807 -3.462,0.88889 v -4.8655 h -2.433 V 19.5556 h 2.433 V 9.49716 c 0.749,-0.37427 1.825,-0.79532 2.76,-0.79532 1.076,0 1.591,0.5614 1.591,1.68416 v 9.1696 h 2.479 V 9.7779 c 0,-2.15209 -1.169,-3.32168 -3.368,-3.32168 z"
     fill="#fcfdfd"
     id="path10" />
  <path
     d="M 117.895,16.2808 114.9,6.69019 h -2.619 l 4.397,12.67831 -0.047,0.0936 c -0.701,2.0585 -1.543,2.4328 -2.666,2.4328 -0.468,0 -0.749,-0.0468 -0.983,-0.0936 l -0.234,-0.0936 v 2.1053 l 0.141,0.0468 c 0.327,0.0935 0.701,0.1403 1.356,0.1403 2.012,0 3.556,-0.7017 4.726,-4.1637 l 4.397,-13.14621 h -2.666 z"
     fill="#fcfdfd"
     id="path12" />
  <path
     d="m 129.59,17.5907 c -1.216,0 -1.731,-0.5146 -1.731,-1.731 V 8.70183 h 2.995 V 6.64335 h -2.995 V 3.41528 h -2.011 l -0.468,3.22807 v 2.05848 7.48537 c 0,2.3392 1.216,3.5088 3.696,3.5088 0.795,0 1.684,-0.1404 2.105,-0.2339 l 0.14,-0.0468 V 17.31 l -0.234,0.0936 c -0.187,0.0936 -0.935,0.1871 -1.497,0.1871 z"
     fill="#fcfdfd"
     id="path14" />
  <path
     d="m 139.789,6.45622 c -1.076,0 -2.245,0.2807 -3.462,0.88889 v -4.8655 h -2.432 V 19.5556 h 2.432 V 9.49716 c 0.749,-0.37427 1.825,-0.79532 2.761,-0.79532 1.076,0 1.59,0.5614 1.59,1.68416 v 9.1696 h 2.48 V 9.7779 c 0,-2.15209 -1.217,-3.32168 -3.369,-3.32168 z"
     fill="#fcfdfd"
     id="path16" />
  <path
     d="m 158.082,6.45618 c -1.357,0 -2.714,0.42105 -3.79,1.21637 -0.561,-0.79532 -1.544,-1.21637 -2.853,-1.21637 -1.123,0 -2.386,0.37427 -3.275,0.93567 l -0.187,-0.79532 h -2.012 V 19.5556 h 2.433 V 9.40354 c 0.701,-0.46783 1.637,-0.74853 2.526,-0.74853 1.123,0 1.591,0.5614 1.591,1.82459 v 9.076 h 2.432 V 9.9182 c 0,-0.1404 0,-0.3275 -0.046,-0.46787 0.888,-0.5614 1.731,-0.84211 2.573,-0.84211 1.076,0 1.59,0.56141 1.59,1.82458 v 9.1228 h 2.48 V 9.9182 c 0,-2.19887 -1.263,-3.46202 -3.462,-3.46202 z"
     fill="#fcfdfd"
     id="path18" />
  <path
     d="m 163.649,7.4386 v 1.54386 h -0.468 V 7.4386 H 162.62 V 7.06433 h 1.591 V 7.4386 Z m 2.573,1.54386 V 7.62573 l -0.514,1.35673 h -0.281 l -0.515,-1.35673 v 1.35673 h -0.468 V 7.06433 h 0.655 l 0.468,1.26316 0.468,-1.26316 h 0.608 v 1.91813 z"
     fill="#fcfdfd"
     id="path20" />
  <path
     d="M 44.6316,0.046784 44.117,1.45029 c -1.0293,2.76024 -2.7135,6.97076 -5.0059,11.27481 -4.0234,7.6726 -7.4854,9.31 -9.6842,9.31 -2.386,0 -3.9298,-2.5263 -4.8655,-5.1462 -0.655,-1.8246 -0.9357,-3.7427 -1.4971,-5.5673 -0.8889,-2.90055 -2.0585,-4.67833 -3.228,-4.67833 -2.5264,0 -4.0702,4.53803 -4.4445,6.26903 l -0.1403,0.7485 H 0 L 0.280702,12.3977 C 0.327485,12.0702 2.0117,4.53801 6.73684,4.53801 c 2.2924,0 3.74266,2.24562 4.72516,4.81872 H 9.21637 C 8.46784,7.62573 7.57895,6.59649 6.73684,6.59649 c -2.24561,0 -3.64912,3.64911 -4.11696,5.00581 H 13.5673 c 0.6081,-2.19879 2.4795,-7.06429 6.269,-7.06429 2.1052,0 3.5555,1.96491 4.4912,4.21053 0.1871,0.65497 0.421,1.30996 0.6082,1.96496 0.6549,2.2923 1.1228,4.6315 2.1052,6.8304 0.4211,0.9356 1.1228,2.3859 2.3392,2.3859 1.3567,0 4.1638,-1.076 7.9064,-8.1871 1.9182,-3.64913 3.4153,-7.25147 4.3509,-9.63744 H 30.7368 C 29.8947,4.30409 28.6316,7.39181 26.9942,10.7135 26.8538,10.152 26.7134,9.6374 26.5731,9.07602 26.4327,8.60819 26.2924,8.14035 26.152,7.67251 27.4152,4.95906 28.3509,2.47953 29.0526,0.65497 L 29.2865,0 H 44.6316 Z M 22.0819,15.2515 c -2.7135,3.9766 -4.772,4.6783 -5.8012,4.6783 -1.0292,0 -2.152,-1.5438 -2.9942,-4.0702 h -2.1988 c 0.8889,2.9474 2.4796,6.1287 5.193,6.1287 1.5439,0 3.7895,-0.8421 6.4561,-4.1637 -0.1871,-0.8421 -0.421,-1.6842 -0.6549,-2.5731 z"
     fill="#fcfdfd"
     id="path22" />
</svg>
